<svg id="logo" width="168" height="20" viewBox="0 0 168 20" xmlns="http://www.w3.org/2000/svg">
		<title>Alaris Prime</title>
		<g>
			<defs>
				<linearGradient id="logo-gradient-light" x1="0%" y1="33.333333%" x2="100%" y2="66.666666%" >
					<stop offset="0%" stop-color="#B8E3D3">
						<animate attributeName="stop-color" values="#B8E3D3; #EBFAF4; #B8E3D3" dur="5s" repeatCount="indefinite"></animate>
					</stop>
					<stop offset="100%" stop-color="#EBFAF4">
						<animate attributeName="stop-color" values="#EBFAF4; #B8E3D3; #EBFAF4" dur="5s" repeatCount="indefinite"></animate>
					</stop>
				</linearGradient>
				<linearGradient id="logo-gradient" x1="0%" y1="33.333333%" x2="100%" y2="66.666666%" >
					<stop offset="0%" stop-color="#53C99E">
						<animate attributeName="stop-color" values="#53C99E; #79E0BB; #53C99E" dur="5s" repeatCount="indefinite"></animate>
					</stop>
					<stop offset="100%" stop-color="#79E0BB">
						<animate attributeName="stop-color" values="#79E0BB; #53C99E; #79E0BB" dur="5s" repeatCount="indefinite"></animate>
					</stop>
				</linearGradient>
			</defs>
		</g>
		<g>
			<path d="M9.148.375l5.139 19.255h-3.233l-1.215-4.818H4.212l-1.18 4.82H0L5.574.379h3.58L9.149.375zM7.04 3.493l-2.192 8.805h4.359L7.04 3.493zM20.26.375v16.572h6.814v2.684h-9.99V.375h3.176zm17.926 0l5.139 19.255h-3.233L38.88 14.81h-5.63l-1.18 4.821h-3.031L34.613.375h3.58-.007zm-2.108 3.118l-2.193 8.805h4.359l-2.166-8.805zM51.898.375c2.02 0 3.319.346 4.302 1.097a5.467 5.467 0 0 1 1.846 4.389 5.198 5.198 0 0 1-2.944 5.05l3.637 8.717h-3.437l-3-8.053H49.3v8.053h-3.176V.376H51.898zm-2.6 8.747h2.455c2.021 0 3.148-1.18 3.148-3.29 0-1.992-1.069-3.003-3.148-3.003H49.3v6.296-.003zM65.29.375V19.63h-3.175V.375h3.176zM78.598 5.63c-.722-2.164-1.646-2.973-3.377-2.973a2.426 2.426 0 0 0-2.628 2.427c0 .654.285 1.276.78 1.705.577.49 1.127.75 3.06 1.501a11.022 11.022 0 0 1 3.666 1.935 5.135 5.135 0 0 1 1.706 3.926c0 3.436-2.627 5.831-6.437 5.831a6.742 6.742 0 0 1-4.879-1.817 6.47 6.47 0 0 1-1.79-3.551l2.829-.81c.52 2.397 1.79 3.552 3.897 3.552 1.876 0 3.118-1.097 3.118-2.771 0-1.443-.809-2.223-3.263-3.148-2.656-1.011-3.148-1.242-4.07-2.05a5.15 5.15 0 0 1-1.733-3.927c0-3.205 2.426-5.427 5.918-5.427a5.865 5.865 0 0 1 4.186 1.502c.837.779 1.24 1.558 1.731 3.147l-2.714.948zm13.48-1.502a3.991 3.991 0 0 1-3.984 3.984 4.059 4.059 0 0 1-4.042-4.07A4.005 4.005 0 0 1 88.036 0a4.055 4.055 0 0 1 4.041 4.128zm-5.947-.086a1.984 1.984 0 0 0 1.963 1.963 1.928 1.928 0 0 0 1.905-1.935 1.967 1.967 0 0 0-1.935-1.991 1.941 1.941 0 0 0-1.933 1.962zM101.14.375c2.482 0 3.781.262 4.852 1.01a5.83 5.83 0 0 1 2.223 4.853c0 2.223-.865 4.042-2.396 4.965-1.128.693-2.195.896-4.62.896h-1.646v7.535H96.38V.374h4.763l-.003.001zm-1.587 9.181h1.586c1.502 0 2.31-.202 2.83-.721.628-.737.949-1.689.894-2.656a3.563 3.563 0 0 0-1.125-2.83c-.549-.432-.984-.519-2.599-.519h-1.587v6.727-.001zm17.694-9.18c2.021 0 3.32.345 4.302 1.096a5.467 5.467 0 0 1 1.846 4.389 5.198 5.198 0 0 1-2.944 5.05l3.638 8.717h-3.436l-3.004-8.05h-3.003v8.054h-3.174V.375h5.775zm-2.599 8.746h2.455c2.02 0 3.147-1.18 3.147-3.29 0-1.992-1.069-3.003-3.147-3.003h-2.454v6.296-.003zM130.641.375V19.63h-3.175V.375h3.175zm9.24 0l3.838 13.886L147.675.375h4.531V19.63h-3.001V3.204l-4.561 16.426h-2.339L137.83 3.175V19.63h-2.656V.375h4.706zm27.882 0v2.54h-7.853v5.543h6.15v2.54h-6.15v6.034h7.968v2.598h-11.144V.375h11.029z"/>
		</g>
	</svg>
